<svg xmlns="http://www.w3.org/2000/svg" width="63.323" height="80.058" viewBox="0 0 63.323 80.058"><g id="Group_971" data-name="Group 971" transform="translate(-771.605 -574.359)"><g id="Group_968" data-name="Group 968" transform="translate(771.605 574.359)"><g id="Group_964" data-name="Group 964" transform="translate(25.22 20.414)"><path id="Path_1599" data-name="Path 1599" d="M859.8,694.96H846.915V635.316H859.8Zm-10.6-2.28h8.321V637.6H849.2Z" transform="translate(-846.915 -635.316)" fill="#303030"></path></g><g id="Group_965" data-name="Group 965" transform="translate(19.877 13.857)"><path id="Path_1600" data-name="Path 1600" d="M854.527,624.573H830.958v-8.837h23.569Zm-21.289-2.28h19.008v-4.277H833.239Z" transform="translate(-830.958 -615.736)" fill="#303030"></path></g><g id="Group_966" data-name="Group 966" transform="translate(0 10.109)"><path id="Path_1601" data-name="Path 1601" d="M834.928,610.574H771.6l5.311-6.028h52.7Zm-58.274-2.281h53.226l-1.292-1.467H777.946Z" transform="translate(-771.605 -604.546)" fill="#303030"></path></g><g id="Group_967" data-name="Group 967" transform="translate(5.489)"><path id="Path_1602" data-name="Path 1602" d="M840.341,582.31H788v-5.22l.438-.342c.51-.4,4.147-2.389,25.734-2.389s25.225,1.991,25.734,2.389l.438.342Zm-50.063-2.281H838.06v-1.642c-1.506-.505-6.933-1.747-23.892-1.747s-22.386,1.242-23.892,1.747Z" transform="translate(-787.997 -574.359)" fill="#303030"></path></g></g><g id="Group_969" data-name="Group 969" transform="translate(800.437 600.38)"><rect id="Rectangle_580" data-name="Rectangle 580" width="2.28" height="52.897" transform="translate(0 0)" fill="#d6b982"></rect></g><g id="Group_970" data-name="Group 970" transform="translate(804.102 600.38)"><rect id="Rectangle_581" data-name="Rectangle 581" width="2.28" height="52.897" transform="translate(0 0)" fill="#d6b982"></rect></g></g></svg>